<svg xmlns="http://www.w3.org/2000/svg" viewBox="0 0 59 59"><defs><style>.a{fill:#adddef;}.b{fill:#d3eaf4;}.c{fill:#208ac3;opacity:0.7;}.d{fill:#4d4e4e;}.e{fill:#c3cce9;}.f{fill:#e4c95c;}.g{fill:#fff;}</style></defs><title>CM_service_icons</title><path class="a" d="M30.19,41.68a10.29,10.29,0,1,0-16.13,8.48H25.73A10.29,10.29,0,0,0,30.19,41.68Z"/><path class="b" d="M43.68,31.69a14.13,14.13,0,0,0-28.25,0c0,4.83,1.79,4.36,5.48,6.9h16C40.62,36.05,43.68,36.52,43.68,31.69Z"/><path class="c" d="M49.5,41.68a10.29,10.29,0,1,0-16.13,8.48H45.05A10.28,10.28,0,0,0,49.5,41.68Z"/><path class="d" d="M48.35,51.66H12.76a.75.75,0,1,1,0-1.5H48.35a.75.75,0,0,1,0,1.5Z"/><path class="e" d="M40.42,54.89H20.69a.75.75,0,1,1,0-1.5H40.42a.75.75,0,0,1,0,1.5Z"/><path class="e" d="M28.42,58.13H26.48a.75.75,0,1,1,0-1.5h1.94a.75.75,0,1,1,0,1.5Z"/><path class="e" d="M36.08,58.13h-4.3a.75.75,0,1,1,0-1.5h4.3a.75.75,0,0,1,0,1.5Z"/><path class="f" d="M57,42.83a.7.7,0,0,1-.72.72h0a.24.24,0,0,0-.23.24.23.23,0,0,0,.23.24.69.69,0,0,1,.73.72.23.23,0,0,0,.24.24.24.24,0,0,0,.24-.24.69.69,0,0,1,.72-.72.24.24,0,0,0,0-.48.68.68,0,0,1-.72-.72h0a.25.25,0,0,0-.24-.24A.24.24,0,0,0,57,42.83Z"/><path class="f" d="M51.63,23.61a1.14,1.14,0,0,1-1.2,1.2h0a.41.41,0,0,0-.39.4.4.4,0,0,0,.4.4,1.14,1.14,0,0,1,1.2,1.2.4.4,0,0,0,.4.4.39.39,0,0,0,.4-.4,1.14,1.14,0,0,1,1.21-1.2.4.4,0,0,0,0-.8,1.15,1.15,0,0,1-1.2-1.2h0a.39.39,0,0,0-.4-.39A.41.41,0,0,0,51.63,23.61Z"/><path class="f" d="M55.85,10.33a.58.58,0,0,1-.6.6h0a.2.2,0,0,0-.19.2.19.19,0,0,0,.19.2.57.57,0,0,1,.61.6.2.2,0,1,0,.4,0,.57.57,0,0,1,.6-.6.2.2,0,0,0,0-.4.57.57,0,0,1-.6-.6h0a.21.21,0,0,0-.2-.2A.2.2,0,0,0,55.85,10.33Z"/><path class="f" d="M3.35,11.33a.57.57,0,0,1-.6.6h0a.21.21,0,0,0-.2.2.2.2,0,0,0,.2.2.57.57,0,0,1,.6.6.2.2,0,1,0,.4,0,.57.57,0,0,1,.61-.6.19.19,0,0,0,.19-.2.2.2,0,0,0-.2-.2.58.58,0,0,1-.6-.6h0a.2.2,0,0,0-.4,0Z"/><path class="f" d="M49.83,34.81a.57.57,0,0,1-.6.6h0a.21.21,0,0,0-.2.2.2.2,0,0,0,.2.2.57.57,0,0,1,.6.6.2.2,0,0,0,.2.2.19.19,0,0,0,.2-.2.57.57,0,0,1,.61-.6.19.19,0,0,0,.19-.2.19.19,0,0,0-.2-.2.58.58,0,0,1-.6-.6h0a.2.2,0,0,0-.2-.2A.21.21,0,0,0,49.83,34.81Z"/><path class="f" d="M35.41,1.07a.57.57,0,0,1-.6.6h0a.2.2,0,0,0,0,.4.57.57,0,0,1,.6.6.2.2,0,1,0,.4,0,.57.57,0,0,1,.6-.6.2.2,0,1,0,0-.4.58.58,0,0,1-.6-.6h0a.2.2,0,1,0-.4,0Z"/><path class="f" d="M9.67,26.23a1.14,1.14,0,0,1-1.2,1.2h0a.41.41,0,0,0-.39.4.4.4,0,0,0,.4.4,1.15,1.15,0,0,1,1.2,1.2.4.4,0,0,0,.8,0,1.15,1.15,0,0,1,1.21-1.2.39.39,0,0,0,.39-.4.4.4,0,0,0-.4-.4,1.14,1.14,0,0,1-1.2-1.2h0a.4.4,0,0,0-.8,0Z"/><path class="f" d="M1.35,37.79a.57.57,0,0,1-.6.6h0a.21.21,0,0,0-.2.2.2.2,0,0,0,.2.2.57.57,0,0,1,.6.6.2.2,0,1,0,.4,0,.57.57,0,0,1,.61-.6.19.19,0,0,0,.19-.2.2.2,0,0,0-.2-.2.58.58,0,0,1-.6-.6h0a.2.2,0,0,0-.4,0Z"/><path class="g" d="M29.55,9.88s8.17,3,8.17,17.95c4.26,4.26,5,6.17,5,6.17s1.08,1.46.83,10.71C41.28,42.79,35,38.29,35,38.29L32.53,42H27L24.2,38.21s-4.92,1.33-8.5,7.58c.08-8.33,0-9.81,0-9.81S18,31,21,28.54a8.45,8.45,0,0,0,1.25-3.94S21.19,15,29.55,9.88Z"/><path class="d" d="M29.55,20.67a.83.83,0,1,0-.83-.83A.83.83,0,0,0,29.55,20.67Z"/><path class="d" d="M38.38,27.49V27c-.16-9-3-15-8.44-17.92a.81.81,0,0,0-.77,0C23.73,12,20.89,18,20.73,27v.47l-2.24,2.24a12.77,12.77,0,0,0-3.75,9.07v7a.83.83,0,1,0,1.65,0v-7a11.09,11.09,0,0,1,3.28-7.89l2.48-2.49a.8.8,0,0,0,.24-.58c0-8.19,2.2-13.79,6.53-16.66l.64-.42.65.42c4.33,2.87,6.52,8.47,6.52,16.66a.79.79,0,0,0,.25.58l2.48,2.49a11.08,11.08,0,0,1,3.27,7.89v4.61l-2-1.86a21.34,21.34,0,0,0-5.87-4.07.82.82,0,0,0-1.07.37c-.45.84-1,1.72-1.5,2.6L32,41H27.14l-.34-.55c-.54-.87-1.05-1.75-1.5-2.6a.82.82,0,0,0-1.07-.37,17.72,17.72,0,0,0-3.31,1.94.83.83,0,0,0,.35,1.49.85.85,0,0,0,.62-.15c.43-.31.85-.59,1.27-.85l1-.62.6,1c.38.65.79,1.3,1.22,2a.85.85,0,0,0,.7.37h5.71a.82.82,0,0,0,.69-.37c.44-.67.85-1.32,1.23-2l.6-1,1,.62a28,28,0,0,1,7,6.45.83.83,0,0,0,1.47-.53v-7a12.74,12.74,0,0,0-3.76-9.07Z"/><circle class="d" cx="29.55" cy="25.84" r="0.83"/></svg>