<svg xmlns="http://www.w3.org/2000/svg" xmlns:xlink="http://www.w3.org/1999/xlink" viewBox="0 0 47.64 45"><defs><style>.a,.g{fill:#4d4e4e;}.b{fill:#208ac3;}.c{fill:#c3cce9;}.d{fill:#d3eaf4;}.e{fill:#fff;}.f{fill:#e4c95c;}.g{stroke:#4d4e4e;stroke-miterlimit:10;stroke-width:0.5px;}.h{clip-path:url(#a);}.i{clip-path:url(#b);}</style><clipPath id="a"><path class="a" d="M29.46,16.74H46.23a.56.56,0,0,1,0,1.11H28.12a.56.56,0,0,1-.4-1L31.61,13a.56.56,0,0,1,.79.79l-2.94,2.94Zm-.32,2.64a.57.57,0,0,1-.05-.79.56.56,0,0,1,.79,0l2.5,2.22a.56.56,0,0,1,0,.79.54.54,0,0,1-.78,0l-2.5-2.22Z"/></clipPath><clipPath id="b"><path class="b" d="M44.85,24.75H29.11a.56.56,0,0,0,0,1.12H46.19a.55.55,0,0,0,.39-.95L42.69,21a.56.56,0,0,0-.79.79l3,2.94ZM46.59,26a.57.57,0,0,0,0-.79c-.2-.23-.8,0-1,.2l-3.68,3.41a.55.55,0,0,0,0,.78.57.57,0,0,0,.79.05l3.68-3.41Z"/></clipPath></defs><title>CM_service_icons</title><path class="a" d="M38.35,38.31H1.16a.75.75,0,1,1,0-1.5H38.35a.75.75,0,0,1,0,1.5Z"/><path class="c" d="M34.17,41.54H5.34a.75.75,0,1,1,0-1.5H34.17a.75.75,0,0,1,0,1.5Z"/><path class="c" d="M27.32,44.78h-8a.75.75,0,0,1,0-1.5h8a.75.75,0,0,1,0,1.5Z"/><path class="c" d="M16.1,44.78H14.64a.75.75,0,0,1,0-1.5H16.1a.75.75,0,0,1,0,1.5Z"/><rect class="d" x="4.06" y="0.97" width="31.29" height="36.58"/><path class="a" d="M35.35,38.31H4.06a.75.75,0,0,1-.75-.75V18.46a.75.75,0,0,1,1.5,0V36.81H34.6v-9a.75.75,0,0,1,1.5,0v9.76A.75.75,0,0,1,35.35,38.31Z"/><path class="a" d="M4.06,16.13a.75.75,0,0,1-.75-.75V1A.75.75,0,0,1,4.06.22H35.35A.75.75,0,0,1,36.1,1V14.6a.75.75,0,1,1-1.5,0V1.72H4.81V15.38A.76.76,0,0,1,4.06,16.13Z"/><polygon class="e" points="22.15 12.08 8.75 12.08 8.75 29.29 22.48 29.29 22.15 12.08"/><polygon class="f" points="21.21 16.6 17.89 16.62 17.12 20.79 22.05 24.92 25.41 21.65 21.21 16.6"/><path class="g" d="M8.42,29.29a.73.73,0,0,1-.21-.63v-16c0-.39.15-.55.54-.55H11.8c0-.25,0-.48,0-.71A3.87,3.87,0,0,1,14,7.84a3.35,3.35,0,0,1,4.35,1.28,3.92,3.92,0,0,1,.69,2.27c0,.22,0,.44,0,.69h3.08c.42,0,.58.16.58.58,0,.79,0,1.58,0,2.37a.45.45,0,1,1-.9,0c0-.6,0-1.21,0-1.81V13H19.07v.57c0,.25,0,.49,0,.74a.45.45,0,1,1-.89,0c0-.35,0-.71,0-1.06V13H12.72c0,.08,0,.15,0,.23v1.06a.46.46,0,1,1-.91,0V13H9.12V28.41H21.59c.19,0,.25-.05.24-.24,0-.35,0-.71,0-1.06a.43.43,0,0,1,.44-.49.44.44,0,0,1,.45.48c0,.57,0,1.14,0,1.7a.56.56,0,0,1-.26.47ZM18.2,12.07a14.07,14.07,0,0,0-.12-1.48A2.64,2.64,0,0,0,14,8.84a3.13,3.13,0,0,0-1.24,3.23Z"/><path class="g" d="M19.59,16.6h1.62a.94.94,0,0,1,.69.28L26.06,21a.83.83,0,0,1,0,1.24l-3.31,3.35a.85.85,0,0,1-.62.29.76.76,0,0,1-.49-.22Q20,24.07,18.41,22.5c-.3-.3-.6-.62-.92-.91a1,1,0,0,1-.37-.8c0-1.14,0-2.28-.05-3.43a.83.83,0,0,1,.82-.74c.57,0,1.13,0,1.7,0Zm5.82,5-.12-.15-3.92-3.87a.53.53,0,0,0-.32-.12H18.18l-.22,0v.28c0,.94,0,1.88.05,2.83a.43.43,0,0,0,.13.3q1.89,1.9,3.8,3.79a.62.62,0,0,1,.11.18Z"/><path class="a" d="M20.56,19a1.27,1.27,0,0,1-1.16,1.18A1.17,1.17,0,1,1,20.56,19Zm-1.41,0c0,.19.07.26.25.26s.27-.07.26-.25-.07-.27-.26-.27S19.12,18.81,19.15,19Z"/><path class="a" d="M29.46,16.74H46.23a.56.56,0,0,1,0,1.11H28.12a.56.56,0,0,1-.4-1L31.61,13a.56.56,0,0,1,.79.79l-2.94,2.94Zm-.32,2.64a.57.57,0,0,1-.05-.79.56.56,0,0,1,.79,0l2.5,2.22a.56.56,0,0,1,0,.79.54.54,0,0,1-.78,0l-2.5-2.22Z"/><g class="h"><rect class="a" x="24.78" y="10.07" width="15.57" height="14.46"/></g><path class="b" d="M44.85,24.75H29.11a.56.56,0,0,0,0,1.12H46.19a.55.55,0,0,0,.39-.95L42.69,21a.56.56,0,0,0-.79.79l3,2.94ZM46.59,26a.57.57,0,0,0,0-.79c-.2-.23-.8,0-1,.2l-3.68,3.41a.55.55,0,0,0,0,.78.57.57,0,0,0,.79.05l3.68-3.41Z"/><g class="i"><rect class="b" x="36.02" y="18.08" width="15.57" height="14.46"/></g><path class="a" d="M36.1,19.78v2.91a.75.75,0,1,1-1.5,0V19.78a.75.75,0,0,1,1.5,0Z"/></svg>