<svg xmlns="http://www.w3.org/2000/svg" viewBox="0 0 41 54"><defs><style>.a{fill:#adddef;}.b{fill:#208ac3;}.c{fill:#d3eaf4;}.d{fill:#4d4e4e;}.e{fill:#c3cce9;}</style></defs><title>CM_service_icons</title><path class="a" d="M1.56,39.79,6.37,38s4.06,1.68,6.44,1.75,7.09-1.38,9.48-4.07S25,18.66,16.87,17.91,8,16.24,4.06,20.51s-2.5,11.21-2.5,11.21l2.05,2.89Z"/><path class="b" d="M24,5.91l-1.7-4.25,9,4.25.81,1.38v9.56l-14.69,9-6-.44S9,25.29,8.68,21.6a113.92,113.92,0,0,1,0-13.31C8.87,8,10.43,5.85,16.87,6S24,5.91,24,5.91Z"/><path class="c" d="M27,16.16c8.41-1,12.84,6,12.84,9.5s-3,7.33-5,8.33c.17,2,.83,5.42.83,5.42l-4.41-3.58s-13.84,1.83-16.67-8C15.33,20.88,16.31,17.41,27,16.16Z"/><path class="d" d="M6.38,38.69a1.07,1.07,0,0,1,.51.13A12.34,12.34,0,0,0,22,36.36a.78.78,0,0,1,.87-.27,16,16,0,0,0,7.3.26.93.93,0,0,1,.87.23l2.44,2,1.76,1.46c.37.32.62.38.91.2s.35-.33.22-.89l-.27-1.2c-.25-1.09-.5-2.19-.76-3.27a.71.71,0,0,1,.34-.86,11.54,11.54,0,0,0,2.57-2.41A8.79,8.79,0,0,0,39,21.49a11.63,11.63,0,0,0-6-4.91,15.37,15.37,0,0,0-11.82,0c-4,1.61-6.3,4.19-7.14,7.88a.66.66,0,0,1-.51.42,7.91,7.91,0,0,1-.84,0h-.31a2.78,2.78,0,0,1-3.05-3.05v-3.8c0-2.66,0-5.42,0-8.13a3.13,3.13,0,0,1,.86-2.25,3,3,0,0,1,2.26-.86c2.86,0,5.77,0,8.58,0l3.26,0c.41,0,.7-.1.81-.28a.91.91,0,0,0-.14-.82L24.27,4.5c-.17-.3-.34-.59-.5-.89a1.08,1.08,0,0,1-.1-.24l-.2-.54L24,3l.2.08,1.53.72L30.24,6a2.24,2.24,0,0,1,1.32,2.13v4.34a1.14,1.14,0,0,0,.1.52.55.55,0,0,0,.64.27.62.62,0,0,0,.48-.68V11.46c0-1.18,0-2.4,0-3.59A3.18,3.18,0,0,0,31,5c-2.64-1.29-5.34-2.56-8-3.79L22,.69a1,1,0,0,0-.56,0,.5.5,0,0,0-.32.3.7.7,0,0,0,.08.6L22.4,3.72l.67,1.17.12.25.17.39-.42,0-.22,0h-2.6l-7.81,0A4,4,0,0,0,8.11,9.8v12a5.11,5.11,0,0,0,.06,1,3.67,3.67,0,0,0,2.69,3.14,7.31,7.31,0,0,0,1.82.19l.62,0c.47,0,.6.24.67.61l.07.41a10.65,10.65,0,0,0,.55,2.19,11,11,0,0,0,5.59,5.73l.93.48-.31.33-.19.2A11.08,11.08,0,0,1,7.14,37.52a1,1,0,0,0-1.07-.1l-.33.13L2.38,38.76l.1-.56c0-.13,0-.23.06-.33l.18-.66c.22-.89.45-1.77.7-2.65a1.25,1.25,0,0,0-.13-1A10.77,10.77,0,0,1,3.06,23,13,13,0,0,1,4.4,21c.18-.22.36-.45.53-.69.36-.48.16-.74.1-.83a.61.61,0,0,0-.72-.21,2,2,0,0,0-.44.36A12.45,12.45,0,0,0,2,33.8a1.3,1.3,0,0,1,.1.87c-.31,1.27-.65,2.54-1,3.81l-.24.93c-.11.41-.07.63.13.81s.43.2.85,0c1.35-.49,2.78-1,4.2-1.52A1.14,1.14,0,0,1,6.38,38.69Zm28-1-.48-.39L33,36.59l0-.05c-.51-.42-1-.84-1.51-1.27a1,1,0,0,0-1-.23,14.34,14.34,0,0,1-11.16-1.9,9,9,0,0,1-3.39-3.79,7.42,7.42,0,0,1,.67-7.73,11.11,11.11,0,0,1,6.48-4.38,14.18,14.18,0,0,1,11.74,1.64,8.62,8.62,0,0,1,4.15,5.88,7.63,7.63,0,0,1-2.37,7,13.33,13.33,0,0,1-1.72,1.38l-.45.32c-.45.33-.5.47-.39,1L34.59,37l.06.26.05.28Z"/><path class="d" d="M39.66,46.89H2.47a.75.75,0,1,1,0-1.5H39.66a.75.75,0,0,1,0,1.5Z"/><path class="e" d="M30.39,50.13H11.73a.75.75,0,1,1,0-1.5H30.39a.75.75,0,1,1,0,1.5Z"/><path class="e" d="M26,53.36H22.08a.75.75,0,0,1,0-1.5H26a.75.75,0,0,1,0,1.5Z"/><path class="e" d="M18.69,53.36h-.94a.75.75,0,0,1,0-1.5h.94a.75.75,0,0,1,0,1.5Z"/><path class="d" d="M31.63,23.62a.47.47,0,0,0-.46.46v6.71a.47.47,0,0,0,.46.46.46.46,0,0,0,.45-.46V24.08A.46.46,0,0,0,31.63,23.62Z"/><path class="d" d="M22.48,26.67a.47.47,0,0,0-.46.46v3.66a.46.46,0,0,0,.92,0V27.13A.47.47,0,0,0,22.48,26.67Z"/><path class="d" d="M32.22,20.7a.4.4,0,0,0-.43.38l-.29,1.33a.42.42,0,0,0,.26.52.43.43,0,0,0,.44-.39l.29-1.33A.42.42,0,0,0,32.22,20.7Z"/><path class="d" d="M32.5,21.13a.42.42,0,0,0-.38-.45l-1.32-.22a.38.38,0,1,0-.14.74l1.32.22A.43.43,0,0,0,32.5,21.13Z"/><path class="d" d="M25.53,24.84a.47.47,0,0,0-.46.46v5.49a.46.46,0,1,0,.92,0V25.3A.47.47,0,0,0,25.53,24.84Z"/><path class="d" d="M28.58,25.45a.47.47,0,0,0-.46.46v4.88a.46.46,0,0,0,.92,0V25.91A.47.47,0,0,0,28.58,25.45Z"/><path class="d" d="M31.63,20.89,28.54,23l-2.83-1.13a.47.47,0,0,0-.17,0,.42.42,0,0,0-.28.1l-3.05,2.44a.46.46,0,1,0,.57.71h0l2.84-2.27,2.8,1.12a.47.47,0,0,0,.43,0l3.29-2.2a.42.42,0,0,0,.19-.29.46.46,0,0,0-.7-.47Z"/></svg>