<svg xmlns="http://www.w3.org/2000/svg" viewBox="0 0 51 59"><defs><style>.a{fill:#4d4e4e;}.b{fill:#c3cce9;}.c{fill:#d3eaf4;opacity:0.5;}.d{fill:#fff;}.e{fill:#2e3192;}.f{fill:#208ac3;}</style></defs><title>CM_service_icons</title><path class="a" d="M49.8,51.82H1.2a.75.75,0,0,1,0-1.5H49.8a.75.75,0,0,1,0,1.5Z"/><path class="b" d="M41.12,55.05H9.88a.75.75,0,1,1,0-1.5H41.12a.75.75,0,1,1,0,1.5Z"/><path class="b" d="M29.81,58.29H21.14a.75.75,0,0,1,0-1.5h8.67a.75.75,0,0,1,0,1.5Z"/><path class="b" d="M34.91,58.29H32.67a.75.75,0,0,1,0-1.5h2.24a.75.75,0,0,1,0,1.5Z"/><rect class="c" x="11.93" y="1.46" width="35.77" height="49.61" rx="3.24" ry="3.24"/><polygon class="d" points="25.41 42.47 47.7 42.44 47.7 20.2 25.41 42.47"/><polygon class="d" points="46.89 7.93 12.35 42.44 21.01 42.44 47.7 15.75 47.7 7.93 46.89 7.93"/><path class="a" d="M32,5.45H27.66a.75.75,0,0,1,0-1.5H32a.75.75,0,0,1,0,1.5Z"/><path class="a" d="M44.46,51.82H15.17a4,4,0,0,1-4-4V4.7a4,4,0,0,1,4-4H41.46a.75.75,0,0,1,0,1.5H15.17A2.49,2.49,0,0,0,12.68,4.7V47.83a2.49,2.49,0,0,0,2.49,2.49H44.46A2.5,2.5,0,0,0,47,47.83V4.7a2.5,2.5,0,0,0-2.49-2.49.75.75,0,0,1,0-1.5,4,4,0,0,1,4,4V47.83A4,4,0,0,1,44.46,51.82Z"/><rect class="a" x="11.93" y="41.69" width="35.77" height="1.5"/><path class="e" d="M16.24,27.41a.75.75,0,0,1-.75-.75V25.19a.75.75,0,0,1,1.5,0v1.47A.74.74,0,0,1,16.24,27.41Z"/><rect class="d" x="3.3" y="18.67" width="17.84" height="32.2"/><rect class="a" x="11.93" y="7.18" width="35.77" height="1.5"/><circle class="f" cx="29.81" cy="46.77" r="2.25"/><rect class="c" x="3.3" y="18.46" width="17.84" height="32.61" rx="2.13" ry="2.13"/><rect class="a" x="3.3" y="22.97" width="17.84" height="1.5"/><polygon class="d" points="3.3 42.84 3.3 45.4 6.43 45.4 21.14 30.69 21.14 25.02 3.3 42.84"/><polygon class="d" points="9.33 45.41 21.14 45.4 21.14 33.61 9.33 45.41"/><path class="a" d="M13.64,21.84H10.8a.75.75,0,0,1,0-1.5h2.84a.75.75,0,1,1,0,1.5Z"/><path class="a" d="M19,51.82H5.43a2.88,2.88,0,0,1-2.88-2.88V20.59a2.88,2.88,0,0,1,2.88-2.88H19a2.88,2.88,0,0,1,2.88,2.88V48.94A2.88,2.88,0,0,1,19,51.82ZM5.43,19.21a1.38,1.38,0,0,0-1.38,1.38V48.94a1.38,1.38,0,0,0,1.38,1.38H19a1.38,1.38,0,0,0,1.38-1.38V20.59A1.38,1.38,0,0,0,19,19.21Z"/><rect class="a" x="3.3" y="44.65" width="17.84" height="1.5"/><circle class="f" cx="12.35" cy="48.23" r="1.38"/></svg>