<?xml version="1.0" encoding="UTF-8" standalone="no"?>
<svg
   xmlns:dc="http://purl.org/dc/elements/1.1/"
   xmlns:cc="http://creativecommons.org/ns#"
   xmlns:rdf="http://www.w3.org/1999/02/22-rdf-syntax-ns#"
   xmlns:svg="http://www.w3.org/2000/svg"
   xmlns="http://www.w3.org/2000/svg"
   height="39.200001"
   width="400"
   xml:space="preserve"
   viewBox="0 0 400 39.200001"
   y="0px"
   x="0px"
   id="Layer_1"
   version="1.1"><metadata
     id="metadata3597"><rdf:RDF><cc:Work
         rdf:about=""><dc:format>image/svg+xml</dc:format><dc:type
           rdf:resource="http://purl.org/dc/dcmitype/StillImage" /><dc:title></dc:title></cc:Work></rdf:RDF></metadata><defs
     id="defs3595" /><style
     id="style3555"
     type="text/css">
	.st0{fill:#4E4E4E;}
	.st1{fill:#208BC3;}
</style><g
     transform="matrix(0.33333333,0,0,0.33333333,-16.666667,-13.733333)"
     id="g3557"><path
       style="fill:#208bc3"
       id="path3559"
       d="M 108.8,41.2 C 76.3,41.2 50,67.5 50,100 c 0,32.5 26.3,58.8 58.8,58.8 32.5,0 58.8,-26.3 58.8,-58.8 0.1,-32.5 -26.3,-58.8 -58.8,-58.8 z M 84.6,127.7 65,100 84.6,72.3 l 18.5,0 -19.6,27.7 19.6,27.7 -18.5,0 z m 61.9,-53.9 0,53.9 -16.8,0 0,-30.2 -9.2,12.9 -9.3,13.1 -9.3,-13.1 -7.5,-10.4 9.2,-13.1 7.6,10.5 17.8,-25.1 1.7,0 15.8,0 0,1.5 z"
       class="st1" /><g
       id="g3561"><path
         style="fill:#4e4e4e"
         id="path3563"
         d="m 254,134.8 c -6.4,2.1 -13.3,3.1 -20.8,3.1 -25.9,0 -38.9,-12.9 -38.9,-38.7 0,-24.4 13,-36.6 38.9,-36.6 7.4,0 14.4,1 20.8,3.1 l 0,8.3 c -6.4,-2.4 -13,-3.6 -19.7,-3.6 -20.2,0 -30.4,9.6 -30.4,28.8 0,20.6 10.1,30.9 30.4,30.9 6.7,0 13.3,-1.2 19.7,-3.6 l 0,8.3 z"
         class="st0" /><path
         style="fill:#4e4e4e"
         id="path3565"
         d="m 264.6,100.4 c 0,-25.2 12.4,-37.7 37.3,-37.7 24.5,0 36.7,12.6 36.7,37.7 0,25 -12.2,37.5 -36.7,37.5 -24.9,0 -37.3,-12.5 -37.3,-37.5 z m 37.2,29.7 c 17.7,0 26.6,-10 26.6,-30 0,-19.8 -8.9,-29.6 -26.6,-29.6 -18.1,0 -27.1,9.9 -27.1,29.6 0,20 9,30 27.1,30 z"
         class="st0" /><path
         style="fill:#4e4e4e"
         id="path3567"
         d="m 350.9,137.4 0,-74.2 27,0 c 24.6,0 36.8,11.7 36.8,35.1 0,26.1 -12.3,39.1 -36.8,39.1 l -27,0 z m 27,-7.8 c 18.2,0 27.2,-10.4 27.2,-31.3 C 405.1,80.1 396,71 377.9,71 l -17.4,0 0,58.6 17.4,0 z"
         class="st0" /><path
         style="fill:#4e4e4e"
         id="path3569"
         d="m 474.6,63.2 0,7.8 -38.9,0 0,24.9 37.1,0 0,7.8 -37.1,0 0,25.9 39.7,0 0,7.8 -49.3,0 0,-74.2 48.5,0 z"
         class="st0" /><path
         style="fill:#208bc3"
         id="path3571"
         d="m 487.3,137.4 0,-74.2 12.2,0 27.2,61.9 26.7,-61.9 11.7,0 0,74.2 -8.6,0 0,-60.9 -26.4,60.9 -7.6,0 -26.8,-60.9 0,60.9 -8.4,0 z"
         class="st1" /><path
         style="fill:#208bc3"
         id="path3573"
         d="m 582.5,137.4 -10,0 31.5,-74.2 10.6,0 31.7,74.2 -10.6,0 -9.6,-23.4 -24.5,0 2.6,-7.8 18.7,0 -13.9,-33.6 -26.5,64.8 z"
         class="st1" /><path
         style="fill:#208bc3"
         id="path3575"
         d="m 653.8,137.4 0,-74.2 9.6,0 45.4,59.8 0,-59.8 9.1,0 0,74.2 -9.6,0 -45.4,-60.3 0,60.3 -9.1,0 z"
         class="st1" /><path
         style="fill:#208bc3"
         id="path3577"
         d="m 732.4,108.7 0,-45.5 9.6,0 0,45.6 c 0,14.3 7.1,21.4 21.3,21.4 14.2,0 21.3,-7.1 21.3,-21.4 l 0,-45.6 9.6,0 0,45.6 c 0,19.4 -10.3,29.2 -30.9,29.2 -20.6,-0.1 -30.9,-9.8 -30.9,-29.3 z"
         class="st1" /><path
         style="fill:#208bc3"
         id="path3579"
         d="m 857.1,63.2 0,7.8 -38.9,0 0,24.9 37.1,0 0,7.8 -37.1,0 0,33.7 -9.6,0 0,-74.2 48.5,0 z"
         class="st1" /><path
         style="fill:#208bc3"
         id="path3581"
         d="m 860.6,137.4 -10,0 31.5,-74.2 10.6,0 31.7,74.2 -10.6,0 -9.6,-23.4 -24.5,0 2.6,-7.8 18.7,0 -13.9,-33.6 -26.5,64.8 z"
         class="st1" /><path
         style="fill:#208bc3"
         id="path3583"
         d="m 987.9,134.8 c -6.4,2.1 -13.3,3.1 -20.8,3.1 -25.9,0 -38.9,-12.9 -38.9,-38.7 0,-24.4 13,-36.6 38.9,-36.6 7.4,0 14.4,1 20.8,3.1 l 0,8.3 c -6.4,-2.4 -13,-3.6 -19.7,-3.6 -20.2,0 -30.4,9.6 -30.4,28.8 0,20.6 10.1,30.9 30.4,30.9 6.7,0 13.3,-1.2 19.7,-3.6 l 0,8.3 z"
         class="st1" /><path
         style="fill:#208bc3"
         id="path3585"
         d="m 1051.2,63.2 0,7.8 -23.4,0 0,66.4 -9.6,0 0,-66.5 -23.4,0 0,-7.8 56.4,0 z"
         class="st1" /><path
         style="fill:#208bc3"
         id="path3587"
         d="m 1059.4,108.7 0,-45.5 9.6,0 0,45.6 c 0,14.3 7.1,21.4 21.3,21.4 14.2,0 21.3,-7.1 21.3,-21.4 l 0,-45.6 9.6,0 0,45.6 c 0,19.4 -10.3,29.2 -30.9,29.2 -20.6,-0.1 -30.9,-9.8 -30.9,-29.3 z"
         class="st1" /><path
         style="fill:#208bc3"
         id="path3589"
         d="m 1135.6,137.4 0,-74.2 31.7,0 c 14.1,0 21.2,5.9 21.2,17.8 0,9.7 -6.9,16.8 -20.7,21.4 l 25.5,35 -12.7,0 -23.6,-33.4 0,-6.3 c 14.2,-2.2 21.3,-7.7 21.3,-16.3 0,-6.8 -3.9,-10.3 -11.8,-10.3 l -21.2,0 0,66.3 -9.7,0 z"
         class="st1" /><path
         style="fill:#208bc3"
         id="path3591"
         d="m 1249.2,63.2 0,7.8 -38.9,0 0,24.9 37.1,0 0,7.8 -37.1,0 0,25.9 39.7,0 0,7.8 -49.3,0 0,-74.2 48.5,0 z"
         class="st1" /></g></g></svg>